<!DOCTYPE svg PUBLIC "-//W3C//DTD SVG 1.1//EN" "http://www.w3.org/Graphics/SVG/1.1/DTD/svg11.dtd">
<!-- Uploaded to: SVG Repo, www.svgrepo.com, Transformed by: SVG Repo Mixer Tools -->
<svg fill="#FFFFFF" height="800px" width="800px" version="1.1" id="Layer_1" xmlns="http://www.w3.org/2000/svg" xmlns:xlink="http://www.w3.org/1999/xlink" viewBox="0 0 512 512" xml:space="preserve" stroke="#FFFFFF">
<g id="SVGRepo_bgCarrier" stroke-width="0"/>
<g id="SVGRepo_tracerCarrier" stroke-linecap="round" stroke-linejoin="round"/>
<g id="SVGRepo_iconCarrier"> <g> <g> <path d="M397.952,80.16H114.416c-36,0-66.416,30.432-66.416,66.464v61.536c0,8.832,7.168,16,16,16c8.832,0,16-7.168,16-16v-61.536 c0-18.688,15.76-34.464,34.416-34.464h283.536c18.448,0,34.048,15.776,34.048,34.464v61.536c0,8.832,7.168,16,16,16 c8.832,0,16-7.168,16-16v-61.536C464,109.984,434.368,80.16,397.952,80.16z"/> </g> </g> <g> <g> <path d="M64.864,192.16H48.176C22.064,192.16,0,214.4,0,240.72v95.44c0,8.832,7.168,16,16,16c8.832,0,16-7.168,16-16v-95.44 c0-8.512,7.856-16.56,16.176-16.56h16.688c8.064,0,15.136,7.744,15.136,16.56v63.44c0,8.832,7.168,16,16,16 c8.832,0,16-7.168,16-16v-63.44C112,214.4,90.416,192.16,64.864,192.16z"/> </g> </g> <g> <g> <path d="M466,192.16h-20.72c-24.544,0-45.28,21.52-45.28,47.008v64.992c0,8.832,7.168,16,16,16c8.832,0,16-7.168,16-16v-64.992 c0-7.712,6.448-15.008,13.28-15.008H466c7.056,0,14,7.44,14,15.008v93.168c0,19.76-16.544,35.824-36.88,35.824H69.088 c-19.968,0-36.224-16.128-36.224-35.968c0-8.832-7.168-16-16-16c-8.832,0-16,7.168-16,16c0,37.472,30.608,67.968,68.224,67.968 H443.12c37.984,0,68.88-30.416,68.88-67.824v-93.168C512,213.68,490.944,192.16,466,192.16z"/> </g> </g> <g> <g> <path d="M416,288.16H96c-8.832,0-16,7.168-16,16c0,8.832,7.168,16,16,16h320c8.832,0,16-7.168,16-16 C432,295.328,424.832,288.16,416,288.16z"/> </g> </g> <g> <g> <path d="M95.552,368.64c-2.8,0-5.424,0.72-7.712,1.984c-2.288-1.264-4.912-1.984-7.712-1.984c-8.832,0-16,7.168-16,16v31.2 c0,8.832,7.168,16,16,16h15.44c8.832,0,16-7.152,15.984-16v-31.2C111.552,375.808,104.384,368.64,95.552,368.64z"/> </g> </g> <g> <g> <path d="M432.096,368.64c-2.976,0-5.744,0.8-8.128,2.208c-2.384-1.408-5.152-2.208-8.128-2.208c-8.832,0-16,7.168-16,16v31.2 c0,8.832,7.168,16,16,16h16.256c8.832,0,16-7.152,16-16v-31.2C448.096,375.808,440.928,368.64,432.096,368.64z"/> </g> </g> </g>
</svg>